<svg xmlns="http://www.w3.org/2000/svg" xmlns:xlink="http://www.w3.org/1999/xlink" xmlns:lucid="lucid" width="1287.56" height="865.2"><g transform="translate(-78.99999999999989 -1299)" lucid:page-tab-id="0_0"><path d="M80 1543.54a30 30 0 0 1 30-30h580a30 30 0 0 1 30 30v560a30 30 0 0 1-30 30H110a30 30 0 0 1-30-30z" fill="#fbf7ff"/><path d="M84.1 1528.6l1.63-2.7 3.06-3.57 3.57-3.06 2.67-1.64m7.2-2.98l3.07-.74 4.7-.36h10.17m10.18 0h20.35m10.18 0h20.35m10.17 0h20.35m10.18 0h20.35m10.18 0h20.35m10.18 0h20.35m10.18 0h20.36m10.18 0h20.35m10.16 0h20.35m10.2 0h20.34m10.17 0h20.36m10.18 0h20.35m10.17 0h20.35m10.17 0h20.34m10.18 0h20.35m10.18 0h20.35m10.17 0h20.35m10.18 0h20.35m10.18 0H690l4.7.37 3.04.75m7.22 2.98l2.67 1.64 3.58 3.06 3.07 3.58 1.64 2.7m3 7.2l.73 3.05.37 4.7v9.82m0 9.82v19.64m0 9.83v19.65m0 9.82v19.65m0 9.82v19.64m0 9.83v19.64m0 9.82v19.65m0 9.84v19.64m0 9.83v19.66m0 9.82v19.65m0 9.83v19.65m0 9.83v19.65m0 9.82v19.65m0 9.83v19.65m0 9.82V1966m0 9.83v19.64m0 9.83v19.65m0 9.82v19.65m0 9.83v19.64m0 9.82v9.82l-.37 4.7-.73 3.05m-3 7.2l-1.63 2.68-3.06 3.58-3.57 3.05-2.67 1.65m-7.22 3l-3.05.73-4.7.36h-10.17m-10.18 0H649.3m-10.18 0h-20.35m-10.17 0h-20.35m-10.18 0h-20.35m-10.18 0H527.2m-10.18 0h-20.35m-10.18 0h-20.36m-10.18 0H435.6m-10.16 0H405.1m-10.2 0h-20.34m-10.17 0h-20.36m-10.18 0H313.5m-10.17 0h-20.35m-10.17 0h-20.34m-10.18 0h-20.35m-10.18 0H191.4m-10.17 0h-20.35m-10.18 0h-20.35m-10.17 0H110l-4.7-.36-3.05-.74m-7.2-3l-2.68-1.63-3.58-3.04-3.07-3.58-1.64-2.68m-3-7.2l-.73-3.06-.37-4.7v-9.82m0-9.82v-19.65m0-9.83v-19.65m0-9.82v-19.65m0-9.83v-19.64m0-9.83v-19.65m0-9.82v-19.65m0-9.83v-19.65m0-9.82v-19.65m0-9.82v-19.64m0-9.83v-19.65m0-9.82v-19.65m0-9.82v-19.64m0-9.83v-19.64m0-9.82v-19.65m0-9.84v-19.64m0-9.83v-19.66m0-9.82v-19.65m0-9.83v-19.65m0-9.83v-9.83l.37-4.7.73-3.04" stroke="#7d5a9e" stroke-width="2" fill="none"/><path d="M80 1466.37a6 6 0 0 1 6-6h270.7a6 6 0 0 1 6 6v29.17a6 6 0 0 1-6 6H86a6 6 0 0 1-6-6z" fill="#7d5a9e"/><use xlink:href="#a" transform="matrix(1,0,0,1,87.99999999999989,1468.3707561728393) translate(0 18.91362847222222)"/><use xlink:href="#b" transform="matrix(1,0,0,1,87.99999999999989,1468.3707561728393) translate(93.34852430555557 18.91362847222222)"/><path d="M80 1321a6 6 0 0 1 6-6h208a6 6 0 0 1 6 6v78a6 6 0 0 1-6 6H86a6 6 0 0 1-6-6z" stroke="#2f3740" stroke-width="2" fill="#edf5ff"/><use xlink:href="#c" transform="matrix(1,0,0,1,91.99999999999989,1327) translate(64.66124131944444 23.91449652777778)"/><use xlink:href="#d" transform="matrix(1,0,0,1,91.99999999999989,1327) translate(31.32248263888887 54.12282986111111)"/><path d="M360 1321a6 6 0 0 1 6-6h208a6 6 0 0 1 6 6v78a6 6 0 0 1-6 6H366a6 6 0 0 1-6-6z" stroke="#2f3740" stroke-width="2" fill="#edf5ff"/><use xlink:href="#e" transform="matrix(1,0,0,1,371.9999999999999,1327) translate(71.32899305555556 23.91449652777778)"/><use xlink:href="#f" transform="matrix(1,0,0,1,371.9999999999999,1327) translate(31.32248263888887 54.12282986111111)"/><path d="M1027.78 1408c0 6.63-49.25 12-110 12s-110-5.37-110-12v-96c0-6.63 49.25-12 110-12s110 5.37 110 12z" stroke="#2f3740" stroke-width="2" fill="#fff"/><path d="M1027.78 1312c0 6.63-49.25 12-110 12s-110-5.37-110-12" stroke="#2f3740" stroke-width="2" fill="none"/><use xlink:href="#g" transform="matrix(1,0,0,1,812.7777777777776,1329) translate(98.33224826388889 18.83637152777778)"/><use xlink:href="#h" transform="matrix(1,0,0,1,812.7777777777776,1329) translate(78.32899305555556 49.044704861111114)"/><use xlink:href="#i" transform="matrix(1,0,0,1,812.7777777777776,1329) translate(31.659730902777774 79.25303819444444)"/><use xlink:href="#j" transform="matrix(1,0,0,1,812.7777777777776,1329) translate(98.3372482638889 79.25303819444444)"/><path d="M1115.56 1321a6 6 0 0 1 6-6h238a6 6 0 0 1 6 6v78a6 6 0 0 1-6 6h-238a6 6 0 0 1-6-6z" stroke="#2f3740" stroke-width="2" fill="#fff"/><use xlink:href="#k" transform="matrix(1,0,0,1,1127.5555555555552,1327) translate(66.32573784722221 23.91449652777778)"/><use xlink:href="#l" transform="matrix(1,0,0,1,1127.5555555555552,1327) translate(19.65147569444443 54.12282986111111)"/><use xlink:href="#m" transform="matrix(1,0,0,1,1127.5555555555552,1327) translate(99.66449652777777 54.12282986111111)"/><use xlink:href="#n" transform="matrix(1,0,0,1,1127.5555555555552,1327) translate(126.33550347222221 54.12282986111111)"/><path d="M460 1579.54a6 6 0 0 1 6-6h218a6 6 0 0 1 6 6v78a6 6 0 0 1-6 6H466a6 6 0 0 1-6-6z" stroke="#2f3740" stroke-width="2" fill="#f4d9ff"/><use xlink:href="#o" transform="matrix(1,0,0,1,472,1585.5443672839504) translate(9.651475694444429 23.91449652777778)"/><use xlink:href="#p" transform="matrix(1,0,0,1,472,1585.5443672839504) translate(116.33550347222223 23.91449652777778)"/><use xlink:href="#q" transform="matrix(1,0,0,1,472,1585.5443672839504) translate(2.9837239583333286 54.12282986111111)"/><use xlink:href="#r" transform="matrix(1,0,0,1,472,1585.5443672839504) translate(56.325737847222214 54.12282986111111)"/><use xlink:href="#s" transform="matrix(1,0,0,1,472,1585.5443672839504) translate(96.33224826388887 54.12282986111111)"/><path d="M1027.78 1625.4c0 8.7-49.25 15.74-110 15.74s-110-7.04-110-15.73v-125.8c0-8.67 49.25-15.7 110-15.7s110 7.03 110 15.7z" stroke="#2f3740" stroke-width="2" fill="#fff"/><path d="M1027.78 1499.6c0 8.7-49.25 15.74-110 15.74s-110-7.04-110-15.73" stroke="#2f3740" stroke-width="2" fill="none"/><use xlink:href="#t" transform="matrix(1,0,0,1,812.7777777777776,1520.338605967078) translate(98.33224826388889 18.95355902777778)"/><use xlink:href="#u" transform="matrix(1,0,0,1,812.7777777777776,1520.338605967078) translate(18.319227430555543 49.161892361111114)"/><use xlink:href="#v" transform="matrix(1,0,0,1,812.7777777777776,1520.338605967078) translate(84.99674479166666 49.161892361111114)"/><use xlink:href="#w" transform="matrix(1,0,0,1,812.7777777777776,1520.338605967078) translate(111.6677517361111 49.161892361111114)"/><use xlink:href="#x" transform="matrix(1,0,0,1,812.7777777777776,1520.338605967078) translate(91.66449652777777 79.37022569444444)"/><use xlink:href="#y" transform="matrix(1,0,0,1,812.7777777777776,1520.338605967078) translate(31.659730902777778 109.57855902777777)"/><use xlink:href="#j" transform="matrix(1,0,0,1,812.7777777777776,1520.338605967078) translate(98.3372482638889 109.57855902777777)"/><path d="M1115.56 1523.5a6 6 0 0 1 6-6h238a6 6 0 0 1 6 6v78a6 6 0 0 1-6 6h-238a6 6 0 0 1-6-6z" stroke="#2f3740" stroke-width="2" fill="#fff"/><use xlink:href="#k" transform="matrix(1,0,0,1,1127.5555555555552,1529.5130851337447) translate(66.32573784722221 23.91449652777778)"/><use xlink:href="#l" transform="matrix(1,0,0,1,1127.5555555555552,1529.5130851337447) translate(19.65147569444443 54.12282986111111)"/><use xlink:href="#m" transform="matrix(1,0,0,1,1127.5555555555552,1529.5130851337447) translate(99.66449652777777 54.12282986111111)"/><use xlink:href="#z" transform="matrix(1,0,0,1,1127.5555555555552,1529.5130851337447) translate(126.33550347222221 54.12282986111111)"/><path d="M460 1729.54a6 6 0 0 1 6-6h218a6 6 0 0 1 6 6v78a6 6 0 0 1-6 6H466a6 6 0 0 1-6-6z" stroke="#2f3740" stroke-width="2" fill="#f4d9ff"/><use xlink:href="#A" transform="matrix(1,0,0,1,472,1735.5443672839504) translate(42.990234375 23.91449652777778)"/><use xlink:href="#B" transform="matrix(1,0,0,1,472,1735.5443672839504) translate(96.33224826388889 23.91449652777778)"/><use xlink:href="#C" transform="matrix(1,0,0,1,472,1735.5443672839504) translate(36.32248263888887 54.12282986111111)"/><path d="M100 1909.54a6 6 0 0 1 6-6h248a6 6 0 0 1 6 6v108a6 6 0 0 1-6 6H106a6 6 0 0 1-6-6z" stroke="#2f3740" stroke-width="2" fill="#f4d9ff"/><use xlink:href="#D" transform="matrix(1,0,0,1,111.99999999999989,1915.5443672839504) translate(11.3159722222222 23.75043402777778)"/><use xlink:href="#E" transform="matrix(1,0,0,1,111.99999999999989,1915.5443672839504) translate(118 23.75043402777778)"/><use xlink:href="#F" transform="matrix(1,0,0,1,111.99999999999989,1915.5443672839504) translate(44.65473090277777 53.95876736111111)"/><use xlink:href="#G" transform="matrix(1,0,0,1,111.99999999999989,1915.5443672839504) translate(111.33224826388889 53.95876736111111)"/><use xlink:href="#H" transform="matrix(1,0,0,1,111.99999999999989,1915.5443672839504) translate(24.651475694444443 84.16710069444443)"/><use xlink:href="#I" transform="matrix(1,0,0,1,111.99999999999989,1915.5443672839504) translate(77.99348958333333 84.16710069444443)"/><use xlink:href="#J" transform="matrix(1,0,0,1,111.99999999999989,1915.5443672839504) translate(131.33550347222223 84.16710069444443)"/><path d="M460 1909.54a6 6 0 0 1 6-6h218a6 6 0 0 1 6 6v108a6 6 0 0 1-6 6H466a6 6 0 0 1-6-6z" stroke="#2f3740" stroke-width="2" fill="#f4d9ff"/><use xlink:href="#K" transform="matrix(1,0,0,1,472,1915.5443672839504) translate(82.99674479166667 23.705295138888893)"/><use xlink:href="#L" transform="matrix(1,0,0,1,472,1915.5443672839504) translate(-10.351779513888928 53.91362847222222)"/><use xlink:href="#M" transform="matrix(1,0,0,1,472,1915.5443672839504) translate(49.6579861111111 84.12196180555554)"/><path d="M1027.78 1905.07c0 8.68-49.25 15.72-110 15.72s-110-7.05-110-15.73v-125.8c0-8.68 49.25-15.73 110-15.73s110 7.05 110 15.73z" stroke="#2f3740" stroke-width="2" fill="#ffe1bf"/><path d="M1027.78 1779.27c0 8.68-49.25 15.72-110 15.72s-110-7.05-110-15.73" stroke="#2f3740" stroke-width="2" fill="none"/><use xlink:href="#N" transform="matrix(1,0,0,1,812.7777777777776,1799.994020061728) translate(98.33224826388889 18.95355902777778)"/><use xlink:href="#u" transform="matrix(1,0,0,1,812.7777777777776,1799.994020061728) translate(24.986979166666657 49.161892361111114)"/><use xlink:href="#v" transform="matrix(1,0,0,1,812.7777777777776,1799.994020061728) translate(91.66449652777777 49.161892361111114)"/><use xlink:href="#O" transform="matrix(1,0,0,1,812.7777777777776,1799.994020061728) translate(118.33550347222221 49.161892361111114)"/><use xlink:href="#P" transform="matrix(1,0,0,1,812.7777777777776,1799.994020061728) translate(171.67751736111111 49.161892361111114)"/><use xlink:href="#Q" transform="matrix(1,0,0,1,812.7777777777776,1799.994020061728) translate(64.99348958333333 79.37022569444444)"/><use xlink:href="#y" transform="matrix(1,0,0,1,812.7777777777776,1799.994020061728) translate(31.659730902777778 109.57855902777777)"/><use xlink:href="#j" transform="matrix(1,0,0,1,812.7777777777776,1799.994020061728) translate(98.3372482638889 109.57855902777777)"/><path d="M1115.56 1803.17a6 6 0 0 1 6-6h238a6 6 0 0 1 6 6v78a6 6 0 0 1-6 6h-238a6 6 0 0 1-6-6z" stroke="#2f3740" stroke-width="2" fill="#ff9f4a"/><use xlink:href="#R" transform="matrix(1,0,0,1,1127.5555555555552,1809.1684992283947) translate(66.32573784722221 23.91449652777778)"/><use xlink:href="#S" transform="matrix(1,0,0,1,1127.5555555555552,1809.1684992283947) translate(19.65147569444443 54.12282986111111)"/><use xlink:href="#T" transform="matrix(1,0,0,1,1127.5555555555552,1809.1684992283947) translate(99.66449652777777 54.12282986111111)"/><use xlink:href="#U" transform="matrix(1,0,0,1,1127.5555555555552,1809.1684992283947) translate(126.33550347222221 54.12282986111111)"/><path d="M1027.78 2151.2c0 6.63-49.25 12-110 12s-110-5.37-110-12v-96c0-6.63 49.25-12 110-12s110 5.37 110 12z" stroke="#2f3740" stroke-width="2" fill="#ffe1bf"/><path d="M1027.78 2055.2c0 6.63-49.25 12-110 12s-110-5.37-110-12" stroke="#2f3740" stroke-width="2" fill="none"/><use xlink:href="#V" transform="matrix(1,0,0,1,812.7777777777776,2072.1997813786) translate(98.33224826388889 18.83637152777778)"/><use xlink:href="#u" transform="matrix(1,0,0,1,812.7777777777776,2072.1997813786) translate(4.983723958333314 49.044704861111114)"/><use xlink:href="#v" transform="matrix(1,0,0,1,812.7777777777776,2072.1997813786) translate(71.66124131944443 49.044704861111114)"/><use xlink:href="#O" transform="matrix(1,0,0,1,812.7777777777776,2072.1997813786) translate(98.33224826388887 49.044704861111114)"/><use xlink:href="#v" transform="matrix(1,0,0,1,812.7777777777776,2072.1997813786) translate(151.67426215277777 49.044704861111114)"/><use xlink:href="#W" transform="matrix(1,0,0,1,812.7777777777776,2072.1997813786) translate(178.34526909722223 49.044704861111114)"/><use xlink:href="#y" transform="matrix(1,0,0,1,812.7777777777776,2072.1997813786) translate(31.659730902777774 79.25303819444444)"/><use xlink:href="#j" transform="matrix(1,0,0,1,812.7777777777776,2072.1997813786) translate(98.3372482638889 79.25303819444444)"/><path d="M1115.56 2064.2a6 6 0 0 1 6-6h238a6 6 0 0 1 6 6v78a6 6 0 0 1-6 6h-238a6 6 0 0 1-6-6z" stroke="#2f3740" stroke-width="2" fill="#ff9f4a"/><g><use xlink:href="#R" transform="matrix(1,0,0,1,1127.5555555555552,2070.1997813786) translate(66.32573784722221 23.91449652777778)"/><use xlink:href="#S" transform="matrix(1,0,0,1,1127.5555555555552,2070.1997813786) translate(19.65147569444443 54.12282986111111)"/><use xlink:href="#T" transform="matrix(1,0,0,1,1127.5555555555552,2070.1997813786) translate(99.66449652777777 54.12282986111111)"/><use xlink:href="#X" transform="matrix(1,0,0,1,1127.5555555555552,2070.1997813786) translate(126.33550347222221 54.12282986111111)"/></g><path d="M302 1360h38.5" stroke="#2f3740" stroke-width="2" fill="none"/><path d="M302.03 1360.97H301v-1.94h1.03z" stroke="#2f3740" stroke-width=".05" fill="#2f3740"/><path d="M355.76 1360l-14.26 4.63v-9.27z" stroke="#2f3740" stroke-width="2" fill="#2f3740"/><path d="M582 1360h206.28" stroke="#2f3740" stroke-width="2" fill="none"/><path d="M582.03 1360.97H581v-1.94h1.03z" stroke="#2f3740" stroke-width=".05" fill="#2f3740"/><path d="M803.54 1360l-14.26 4.63v-9.27z" stroke="#2f3740" stroke-width="2" fill="#2f3740"/><path d="M1029.78 1360h66.27" stroke="#2f3740" stroke-width="2" fill="none"/><path d="M1029.8 1360.97h-1.02v-1.94h1.02z" stroke="#2f3740" stroke-width=".05" fill="#2f3740"/><path d="M1111.32 1360l-14.27 4.63v-9.27z" stroke="#2f3740" stroke-width="2" fill="#2f3740"/><path d="M692 1618.54h50.9a6 6 0 0 0 6-6v-44.03a6 6 0 0 1 6-6h33.38" stroke="#2f3740" stroke-width="2" fill="none"/><path d="M692.03 1619.52H691v-1.95h1.03z" stroke="#2f3740" stroke-width=".05" fill="#2f3740"/><path d="M803.54 1562.5l-14.26 4.65v-9.27z" stroke="#2f3740" stroke-width="2" fill="#2f3740"/><path d="M1029.78 1562.5h66.27" stroke="#2f3740" stroke-width="2" fill="none"/><path d="M1029.8 1563.5h-1.02v-1.96h1.02z" stroke="#2f3740" stroke-width=".05" fill="#2f3740"/><path d="M1111.32 1562.5l-14.27 4.65v-9.27z" stroke="#2f3740" stroke-width="2" fill="#2f3740"/><path d="M575 1665.54v38.5" stroke="#2f3740" stroke-width="2" fill="none"/><path d="M575.98 1665.57H574v-1.03H576z" stroke="#2f3740" stroke-width=".05" fill="#2f3740"/><path d="M575 1719.3l-4.63-14.26h9.26z" stroke="#2f3740" stroke-width="2" fill="#2f3740"/><path d="M362 1963.54h78.5" stroke="#2f3740" stroke-width="2" fill="none"/><path d="M362.03 1964.52H361v-1.95h1.03z" stroke="#2f3740" stroke-width=".05" fill="#2f3740"/><path d="M455.76 1963.54l-14.26 4.64v-9.27z" stroke="#2f3740" stroke-width="2" fill="#2f3740"/><path d="M575 1815.54v68.5" stroke="#2f3740" stroke-width="2" fill="none"/><path d="M575.98 1815.57H574v-1.03H576z" stroke="#2f3740" stroke-width=".05" fill="#2f3740"/><path d="M575 1899.3l-4.63-14.26h9.26z" stroke="#2f3740" stroke-width="2" fill="#2f3740"/><path d="M692 1963.54h50.9a6 6 0 0 0 6-6v-109.37a6 6 0 0 1 6-6h33.38" stroke="#2f3740" stroke-width="2" fill="none"/><path d="M692.03 1964.52H691v-1.95h1.03z" stroke="#2f3740" stroke-width=".05" fill="#2f3740"/><path d="M803.54 1842.17l-14.26 4.63v-9.27z" stroke="#2f3740" stroke-width="2" fill="#2f3740"/><path d="M692 1963.54h50.9a6 6 0 0 1 6 6v127.66a6 6 0 0 0 6 6h33.38" stroke="#2f3740" stroke-width="2" fill="none"/><path d="M692.03 1964.52H691v-1.95h1.03z" stroke="#2f3740" stroke-width=".05" fill="#2f3740"/><path d="M803.54 2103.2l-14.26 4.64v-9.28z" stroke="#2f3740" stroke-width="2" fill="#2f3740"/><path d="M1029.78 1842.17h66.27" stroke="#2f3740" stroke-width="2" fill="none"/><path d="M1029.8 1843.14h-1.02v-1.95h1.02z" stroke="#2f3740" stroke-width=".05" fill="#2f3740"/><path d="M1111.32 1842.17l-14.27 4.63v-9.27z" stroke="#2f3740" stroke-width="2" fill="#2f3740"/><path d="M1029.78 2103.2h66.27" stroke="#2f3740" stroke-width="2" fill="none"/><path d="M1029.8 2104.18h-1.02v-1.95h1.02z" stroke="#2f3740" stroke-width=".05" fill="#2f3740"/><path d="M1111.32 2103.2l-14.27 4.64v-9.28z" stroke="#2f3740" stroke-width="2" fill="#2f3740"/><path d="M419 1406.5v356.04a6 6 0 0 0 6 6h17.62" stroke="#3a414a" fill="none"/><path d="M419.48 1406.5h-.96v-.5h.96z" stroke="#3a414a" stroke-width=".05" fill="#3a414a"/><path d="M457.38 1768.54l-14.26 4.64v-9.27z" stroke="#3a414a" fill="#3a414a"/><path d="M419 1406.5v206.04a6 6 0 0 0 6 6h17.62" stroke="#3a414a" fill="none"/><path d="M419.48 1406.5h-.96v-.5h.96z" stroke="#3a414a" stroke-width=".05" fill="#3a414a"/><path d="M457.38 1618.54l-14.26 4.64v-9.27z" stroke="#3a414a" fill="#3a414a"/><defs><path fill="#fff" d="M473-1349c438-1 655 221 652 661C1122-268 945-8 532 0H162v-1349h311zm42 1193c308-4 416-205 418-532 2-330-131-509-459-505H353v1037h162" id="Y"/><path fill="#fff" d="M102-681c0-398 126-689 513-689 165 0 291 58 379 174s132 287 132 515c-1 318-88 554-298 657-123 61-317 58-438-3-206-104-288-341-288-654zm749 406c94-160 97-656-5-807-57-85-130-132-231-132-104 0-178 47-234 132-101 153-99 655 1 809 57 89 130 138 232 138 109 0 184-49 237-140" id="Z"/><path fill="#fff" d="M285-1169c8 382 2 780 4 1169H129v-1349h237c86 239 188 461 253 720 69-258 169-481 255-720h225V0H937c2-390-5-788 6-1169-75 255-170 488-259 729H547c-90-240-185-475-262-729" id="aa"/><path fill="#fff" d="M1034 0L896-382H333L196 0H0l510-1349h217L1228 0h-194zM847-531c-77-225-157-447-231-674-69 231-154 451-232 674h463" id="ab"/><path fill="#fff" d="M202-1349h823v156H709v1037h316V0H202v-156h316v-1037H202v-156" id="ac"/><path fill="#fff" d="M912-211c-10-84-18-177-18-274v-864h172V0H836L316-1130c7 79 16 167 16 254V0H162v-1349h222" id="ad"/><g id="a"><use transform="matrix(0.010850694444444444,0,0,0.010850694444444444,0,0)" xlink:href="#Y"/><use transform="matrix(0.010850694444444444,0,0,0.010850694444444444,13.335503472222221,0)" xlink:href="#Z"/><use transform="matrix(0.010850694444444444,0,0,0.010850694444444444,26.671006944444443,0)" xlink:href="#aa"/><use transform="matrix(0.010850694444444444,0,0,0.010850694444444444,40.006510416666664,0)" xlink:href="#ab"/><use transform="matrix(0.010850694444444444,0,0,0.010850694444444444,53.342013888888886,0)" xlink:href="#ac"/><use transform="matrix(0.010850694444444444,0,0,0.010850694444444444,66.67751736111111,0)" xlink:href="#ad"/></g><path fill="#fff" d="M1121-976c0 225-142 341-344 379L1177 0H957L591-575H353V0H162v-1349h482c281 3 477 100 477 373zM633-726c181-1 296-73 296-247 0-149-101-223-304-223H353v470h280" id="ae"/><path fill="#fff" d="M614-1226c-167 1-283 53-283 213 0 183 186 193 334 234 230 63 463 120 463 409 0 286-219 387-518 390C309 23 131-98 79-338l185-37c34 165 149 248 351 246 184-2 324-58 324-238 0-203-207-221-372-266-210-57-422-111-422-377 0-267 201-356 470-360 279-5 430 101 480 324l-188 33c-28-141-121-215-293-213" id="af"/><path fill="#fff" d="M709-1193V0H519v-1193H76v-156h1076v156H709" id="ag"/><g id="b"><use transform="matrix(0.010850694444444444,0,0,0.010850694444444444,0,0)" xlink:href="#ae"/><use transform="matrix(0.010850694444444444,0,0,0.010850694444444444,13.335503472222221,0)" xlink:href="#ab"/><use transform="matrix(0.010850694444444444,0,0,0.010850694444444444,26.671006944444443,0)" xlink:href="#ad"/><use transform="matrix(0.010850694444444444,0,0,0.010850694444444444,40.006510416666664,0)" xlink:href="#Y"/><use transform="matrix(0.010850694444444444,0,0,0.010850694444444444,53.342013888888886,0)" xlink:href="#Z"/><use transform="matrix(0.010850694444444444,0,0,0.010850694444444444,66.67751736111111,0)" xlink:href="#aa"/><use transform="matrix(0.010850694444444444,0,0,0.010850694444444444,80.01302083333334,0)" xlink:href="#ac"/><use transform="matrix(0.010850694444444444,0,0,0.010850694444444444,93.34852430555557,0)" xlink:href="#af"/><use transform="matrix(0.010850694444444444,0,0,0.010850694444444444,106.6840277777778,0)" xlink:href="#ab"/><use transform="matrix(0.010850694444444444,0,0,0.010850694444444444,120.01953125000003,0)" xlink:href="#ag"/><use transform="matrix(0.010850694444444444,0,0,0.010850694444444444,133.35503472222226,0)" xlink:href="#ac"/><use transform="matrix(0.010850694444444444,0,0,0.010850694444444444,146.69053819444449,0)" xlink:href="#Z"/><use transform="matrix(0.010850694444444444,0,0,0.010850694444444444,160.0260416666667,0)" xlink:href="#ad"/></g><path fill="#20252b" d="M202-1349h823v156H709v1037h316V0H202v-156h316v-1037H202v-156" id="ah"/><path fill="#20252b" d="M904-1102c199 0 220 177 220 381V0H956v-686c-3-114 0-215-60-264-70-33-125-4-158 71-26 56-39 140-39 252V0H531v-686c-3-114-1-215-61-264-78-41-136 24-157 84-24 69-39 159-39 259V0H105c-3-360 6-732-6-1082h149c6 50 3 123 8 175 36-100 83-195 216-195 135 0 166 79 196 196 42-105 93-196 236-196" id="ai"/><path fill="#20252b" d="M1000-272c3 95 12 159 101 161 21 0 41-3 59-7V-6c-44 10-86 16-139 16-141 2-191-84-197-217h-6C748-76 648 20 446 20c-207 0-318-120-318-322 0-266 194-348 454-354l236-4c12-191-40-305-222-305-140 0-220 47-232 172l-188-17c33-204 181-292 423-292 255 0 401 118 401 364v466zm-683-27c0 109 63 184 175 182 166-3 259-96 306-217 24-65 20-120 20-200-232 7-501-28-501 235" id="aj"/><path fill="#20252b" d="M1048-32c-2 300-135 456-433 456-222-1-358-88-400-267l184-25c22 99 100 157 222 156 184-2 248-125 248-315 0-64 3-133-2-194C807-100 706-13 524-12c-306 0-381-228-381-537 0-318 85-550 400-550 164 0 271 83 325 202h3c1-60 3-134 12-185h171c-13 339-4 702-6 1050zM585-145c210-8 284-178 284-406 0-192-52-331-177-392-33-16-69-22-104-22-223 2-259 184-259 414 0 229 31 415 256 406" id="ak"/><path fill="#20252b" d="M617-1102c355 0 481 238 477 599H322c5 222 84 388 301 388 144 0 244-59 284-166l158 45C1002-72 854 20 623 20c-342 0-490-220-490-568 0-346 151-554 484-554zm291 461c-18-192-90-328-289-328-194 0-287 128-295 328h584" id="al"/><g id="c"><use transform="matrix(0.010850694444444444,0,0,0.010850694444444444,0,0)" xlink:href="#ah"/><use transform="matrix(0.010850694444444444,0,0,0.010850694444444444,13.335503472222221,0)" xlink:href="#ai"/><use transform="matrix(0.010850694444444444,0,0,0.010850694444444444,26.671006944444443,0)" xlink:href="#aj"/><use transform="matrix(0.010850694444444444,0,0,0.010850694444444444,40.006510416666664,0)" xlink:href="#ak"/><use transform="matrix(0.010850694444444444,0,0,0.010850694444444444,53.342013888888886,0)" xlink:href="#al"/></g><path fill="#20252b" d="M655-135c108 0 195-33 260-74v-336H622v-160h479v572C981-54 839 20 639 20c-388 0-526-306-526-701 0-406 129-689 529-689 261 0 392 137 461 331l-171 56c-47-131-122-231-288-231-281 0-330 245-330 533 0 179 28 314 84 407s142 139 257 139" id="am"/><path fill="#20252b" d="M706-1102c241 0 344 136 343 381V0H868v-695c1-168-57-273-220-268-190 6-283 138-283 336V0H185c-3-360 6-732-6-1082h170c4 54 7 126 8 185h3c63-121 164-204 346-205" id="an"/><path fill="#20252b" d="M839-1102c70 0 148 7 206 17v167c-112-18-268-36-363 15-129 69-208 203-208 395V0H294c-10-367 32-789-52-1082h171c21 75 41 161 48 250h5c67-152 152-270 373-270" id="ao"/><path fill="#20252b" d="M682 16c-209 0-323-80-324-285v-671H190v-142h170l58-282h120v282h432v142H538v652c2 114 60 155 182 155 106 0 209-16 297-34v137C921-4 806 16 682 16" id="ap"/><path fill="#20252b" d="M745-142h380V0H143v-142h422v-798H246v-142h499v940zM545-1292v-192h200v192H545" id="aq"/><path fill="#20252b" d="M615-1102c343 0 484 203 482 560-1 347-147 562-488 562-336 0-475-219-479-562-4-349 156-560 485-560zm-8 989c240 0 301-180 301-429 0-245-55-427-290-427-236 0-299 181-299 427 0 243 61 429 288 429" id="ar"/><g id="d"><use transform="matrix(0.010850694444444444,0,0,0.010850694444444444,0,0)" xlink:href="#am"/><use transform="matrix(0.010850694444444444,0,0,0.010850694444444444,13.335503472222221,0)" xlink:href="#al"/><use transform="matrix(0.010850694444444444,0,0,0.010850694444444444,26.671006944444443,0)" xlink:href="#an"/><use transform="matrix(0.010850694444444444,0,0,0.010850694444444444,40.006510416666664,0)" xlink:href="#al"/><use transform="matrix(0.010850694444444444,0,0,0.010850694444444444,53.342013888888886,0)" xlink:href="#ao"/><use transform="matrix(0.010850694444444444,0,0,0.010850694444444444,66.67751736111111,0)" xlink:href="#aj"/><use transform="matrix(0.010850694444444444,0,0,0.010850694444444444,80.01302083333334,0)" xlink:href="#ap"/><use transform="matrix(0.010850694444444444,0,0,0.010850694444444444,93.34852430555557,0)" xlink:href="#aq"/><use transform="matrix(0.010850694444444444,0,0,0.010850694444444444,106.6840277777778,0)" xlink:href="#ar"/><use transform="matrix(0.010850694444444444,0,0,0.010850694444444444,120.01953125000003,0)" xlink:href="#an"/></g><path fill="#20252b" d="M1034 0L896-382H333L196 0H0l510-1349h217L1228 0h-194zM847-531c-77-225-157-447-231-674-69 231-154 451-232 674h463" id="as"/><path fill="#20252b" d="M528 20c-247 0-343-132-343-381v-721h180v686c-4 177 45 284 224 277 194-8 279-136 279-336v-627h181c3 360-6 732 6 1082H885c-4-54-7-126-8-185h-3C809-64 714 20 528 20" id="at"/><g id="e"><use transform="matrix(0.010850694444444444,0,0,0.010850694444444444,0,0)" xlink:href="#as"/><use transform="matrix(0.010850694444444444,0,0,0.010850694444444444,13.335503472222221,0)" xlink:href="#at"/><use transform="matrix(0.010850694444444444,0,0,0.010850694444444444,26.671006944444443,0)" xlink:href="#ap"/><use transform="matrix(0.010850694444444444,0,0,0.010850694444444444,40.006510416666664,0)" xlink:href="#ar"/></g><g id="f"><use transform="matrix(0.010850694444444444,0,0,0.010850694444444444,0,0)" xlink:href="#as"/><use transform="matrix(0.010850694444444444,0,0,0.010850694444444444,13.335503472222221,0)" xlink:href="#an"/><use transform="matrix(0.010850694444444444,0,0,0.010850694444444444,26.671006944444443,0)" xlink:href="#an"/><use transform="matrix(0.010850694444444444,0,0,0.010850694444444444,40.006510416666664,0)" xlink:href="#ar"/><use transform="matrix(0.010850694444444444,0,0,0.010850694444444444,53.342013888888886,0)" xlink:href="#ap"/><use transform="matrix(0.010850694444444444,0,0,0.010850694444444444,66.67751736111111,0)" xlink:href="#aj"/><use transform="matrix(0.010850694444444444,0,0,0.010850694444444444,80.01302083333334,0)" xlink:href="#ap"/><use transform="matrix(0.010850694444444444,0,0,0.010850694444444444,93.34852430555557,0)" xlink:href="#aq"/><use transform="matrix(0.010850694444444444,0,0,0.010850694444444444,106.6840277777778,0)" xlink:href="#ar"/><use transform="matrix(0.010850694444444444,0,0,0.010850694444444444,120.01953125000003,0)" xlink:href="#an"/></g><g id="g"><use transform="matrix(0.010850694444444444,0,0,0.010850694444444444,0,0)" xlink:href="#as"/><path fill="#20252b" d="M-1.1 4.72h15.55v.9H-1.1z"/></g><path fill="#20252b" d="M802-711c201 25 350 118 350 331C1152-95 921 0 634 0H162v-1349c401 9 908-74 908 327 0 184-111 275-268 311zm-224-69c174-2 300-51 300-218 0-163-124-198-302-198H353v416h225zM353-153c281-2 612 44 606-244-5-271-329-233-606-234v478" id="au"/><path fill="#20252b" d="M873-819c-18-114-119-146-250-146-163 0-245 50-245 151 0 151 170 148 294 185 182 54 388 94 388 320 0 240-189 325-439 329-245 4-410-69-454-268l159-31c24 133 136 168 295 165 144-2 270-31 270-171 0-164-195-160-331-202-167-52-350-87-350-299 0-218 173-315 413-313 220 2 373 77 412 260" id="av"/><g id="h"><use transform="matrix(0.010850694444444444,0,0,0.010850694444444444,0,0)" xlink:href="#au"/><use transform="matrix(0.010850694444444444,0,0,0.010850694444444444,13.335503472222221,0)" xlink:href="#aj"/><use transform="matrix(0.010850694444444444,0,0,0.010850694444444444,26.671006944444443,0)" xlink:href="#av"/><use transform="matrix(0.010850694444444444,0,0,0.010850694444444444,40.006510416666664,0)" xlink:href="#al"/></g><path fill="#20252b" d="M148-1120c216-7 379-89 463-229h166v1204h353V0H157v-145h439v-1021c-79 124-254 184-448 194v-148" id="aw"/><path fill="#20252b" d="M1065-1013c47 164 49 500-1 665C999-130 875 20 611 20c-377 0-484-300-487-695-2-245 41-425 141-551 77-98 191-144 352-144 261 0 386 140 448 357zM741-155c199-92 203-504 159-785-26-168-96-284-283-284-281 0-308 256-311 549-2 181 18 324 80 428 46 77 115 118 227 120 47 0 90-10 128-28" id="ax"/><g id="i"><use transform="matrix(0.010850694444444444,0,0,0.010850694444444444,0,0)" xlink:href="#aw"/><use transform="matrix(0.010850694444444444,0,0,0.010850694444444444,13.335503472222221,0)" xlink:href="#ax"/><use transform="matrix(0.010850694444444444,0,0,0.010850694444444444,26.671006944444443,0)" xlink:href="#ax"/><use transform="matrix(0.010850694444444444,0,0,0.010850694444444444,40.006510416666664,0)" xlink:href="#ax"/></g><g id="j"><use transform="matrix(0.010850694444444444,0,0,0.010850694444444444,0,0)" xlink:href="#ah"/><use transform="matrix(0.010850694444444444,0,0,0.010850694444444444,13.335503472222221,0)" xlink:href="#ai"/><use transform="matrix(0.010850694444444444,0,0,0.010850694444444444,26.671006944444443,0)" xlink:href="#aj"/><use transform="matrix(0.010850694444444444,0,0,0.010850694444444444,40.006510416666664,0)" xlink:href="#ak"/><use transform="matrix(0.010850694444444444,0,0,0.010850694444444444,53.342013888888886,0)" xlink:href="#al"/><use transform="matrix(0.010850694444444444,0,0,0.010850694444444444,66.67751736111111,0)" xlink:href="#av"/></g><path fill="#20252b" d="M708-584V0H520v-584L36-1349h205l374 611 372-611h205" id="ay"/><path fill="#20252b" d="M102-681c0-398 126-689 513-689 165 0 291 58 379 174s132 287 132 515c-1 318-88 554-298 657-123 61-317 58-438-3-206-104-288-341-288-654zm749 406c94-160 97-656-5-807-57-85-130-132-231-132-104 0-178 47-234 132-101 153-99 655 1 809 57 89 130 138 232 138 109 0 184-49 237-140" id="az"/><path fill="#20252b" d="M237 0v-1349h191v1193h672V0H237" id="aA"/><path fill="#20252b" d="M611-1370c266 0 451 106 451 368 0 147-77 243-154 327-132 144-316 255-451 395-42 44-75 87-96 134h723V0H144v-117c124-264 387-411 582-603 73-72 151-147 151-271 0-161-104-231-266-231-163 0-249 90-268 238l-184-17c35-233 185-369 452-369" id="aB"/><path fill="#20252b" d="M672-881c271 0 424 163 424 435 0 291-160 466-455 466-367 0-490-287-490-662 0-324 85-568 293-680 129-70 351-59 460 16 73 50 125 123 153 223l-172 31c-31-108-107-172-232-172-259 0-316 252-323 529 59-113 178-186 342-186zm-37 756c186 0 278-124 278-313s-96-304-284-304c-163 0-281 93-281 261 0 157 65 270 168 327 35 19 75 29 119 29" id="aC"/><path fill="#20252b" d="M932 0L611-444 288 0H94l415-556-397-526h199l300 421 298-421h201L713-558 1133 0H932" id="aD"/><g id="k"><use transform="matrix(0.010850694444444444,0,0,0.010850694444444444,0,0)" xlink:href="#ay"/><use transform="matrix(0.010850694444444444,0,0,0.010850694444444444,13.335503472222221,0)" xlink:href="#az"/><use transform="matrix(0.010850694444444444,0,0,0.010850694444444444,26.671006944444443,0)" xlink:href="#aA"/><use transform="matrix(0.010850694444444444,0,0,0.010850694444444444,40.006510416666664,0)" xlink:href="#az"/><use transform="matrix(0.010850694444444444,0,0,0.010850694444444444,53.342013888888886,0)" xlink:href="#aB"/><use transform="matrix(0.010850694444444444,0,0,0.010850694444444444,66.67751736111111,0)" xlink:href="#aC"/><use transform="matrix(0.010850694444444444,0,0,0.010850694444444444,80.01302083333334,0)" xlink:href="#aD"/></g><path fill="#20252b" d="M622-1349c296 4 497 117 497 404 0 282-193 424-485 431H353V0H162v-1349h460zm-15 684c195-3 320-88 320-277 0-184-129-255-328-254H353v531h254" id="aE"/><path fill="#20252b" d="M353-779c69-51 166-92 291-90 218 3 357 100 423 255 21 52 32 109 32 170 0 305-189 464-500 464-268 0-424-116-471-335l182-21c35 130 124 212 293 209 198-4 309-114 309-313 0-182-118-282-305-282-120 0-198 45-262 101H169l47-728h801v145H382" id="aF"/><g id="l"><use transform="matrix(0.010850694444444444,0,0,0.010850694444444444,0,0)" xlink:href="#ai"/><use transform="matrix(0.010850694444444444,0,0,0.010850694444444444,13.335503472222221,0)" xlink:href="#as"/><use transform="matrix(0.010850694444444444,0,0,0.010850694444444444,26.671006944444443,0)" xlink:href="#aE"/><use transform="matrix(0.010850694444444444,0,0,0.010850694444444444,40.006510416666664,0)" xlink:href="#aF"/><use transform="matrix(0.010850694444444444,0,0,0.010850694444444444,53.342013888888886,0)" xlink:href="#ax"/></g><path fill="#20252b" d="M116-856v-148h995v148H116zm0 512v-148h995v148H116" id="aG"/><use transform="matrix(0.010850694444444444,0,0,0.010850694444444444,0,0)" xlink:href="#aG" id="m"/><path fill="#20252b" d="M496 0v-299h235V0H496" id="aH"/><path fill="#20252b" d="M1060-1016c0 191-128 285-295 323v4c154 18 262 91 313 209 14 35 21 72 21 110 0 277-194 390-478 390-292 0-457-129-493-382l186-17c24 161 121 250 307 250 172 1 298-80 291-247-8-208-220-239-446-233v-156c217 9 409-34 409-232 0-152-102-225-264-225-159 0-264 88-278 233l-181-14c33-239 196-367 461-367 264 0 447 102 447 354" id="aI"/><path fill="#20252b" d="M221 0H76l932-1353h147zM0-1025c0-214 83-337 291-336 203 1 283 126 283 336-1 211-84 341-287 341C83-684 0-813 0-1025zm289 228c118 0 138-104 138-228s-16-228-137-228c-124 0-143 100-143 228 0 125 21 228 142 228zm367 468c0-214 83-337 291-336 203 1 283 126 283 336-1 211-84 341-287 341-204 0-287-129-287-341zm289 228c118 0 138-104 138-228s-16-228-137-228c-124 0-143 100-143 228 0 125 21 228 142 228" id="aJ"/><g id="n"><use transform="matrix(0.010850694444444444,0,0,0.010850694444444444,0,0)" xlink:href="#aw"/><use transform="matrix(0.010850694444444444,0,0,0.010850694444444444,13.335503472222221,0)" xlink:href="#ax"/><use transform="matrix(0.010850694444444444,0,0,0.010850694444444444,26.671006944444443,0)" xlink:href="#aH"/><use transform="matrix(0.010850694444444444,0,0,0.010850694444444444,40.006510416666664,0)" xlink:href="#aI"/><use transform="matrix(0.010850694444444444,0,0,0.010850694444444444,53.342013888888886,0)" xlink:href="#aw"/><use transform="matrix(0.010850694444444444,0,0,0.010850694444444444,66.67751736111111,0)" xlink:href="#aJ"/></g><path fill="#20252b" d="M162 0v-1349h919v156H353v422h668v154H353v461h769V0H162" id="aK"/><path fill="#20252b" d="M168 279c222 39 310-114 368-290L66-1082h192c120 299 249 590 362 896 115-301 235-597 351-896h190L705 0c-65 164-130 320-275 396-67 36-177 35-262 18V279" id="aL"/><path fill="#20252b" d="M365-904c58-129 161-200 334-200 130 0 228 46 293 138s98 233 98 420c0 189-34 331-102 425S824 20 698 20c-170 0-275-64-336-184 0 55-3 116-9 164H179c5-68 6-147 6-223v-1261h180c-2 193 4 394-4 580h4zm283 791c221 0 256-197 256-427 0-229-34-425-254-425-236 0-285 195-285 441 0 237 53 411 283 411" id="aM"/><path fill="#20252b" d="M736-142h380V0H134v-142h422v-1200H267v-142h469v1342" id="aN"/><g id="o"><use transform="matrix(0.010850694444444444,0,0,0.010850694444444444,0,0)" xlink:href="#aK"/><use transform="matrix(0.010850694444444444,0,0,0.010850694444444444,13.335503472222221,0)" xlink:href="#aL"/><use transform="matrix(0.010850694444444444,0,0,0.010850694444444444,26.671006944444443,0)" xlink:href="#al"/><use transform="matrix(0.010850694444444444,0,0,0.010850694444444444,40.006510416666664,0)" xlink:href="#aM"/><use transform="matrix(0.010850694444444444,0,0,0.010850694444444444,53.342013888888886,0)" xlink:href="#aj"/><use transform="matrix(0.010850694444444444,0,0,0.010850694444444444,66.67751736111111,0)" xlink:href="#aN"/><use transform="matrix(0.010850694444444444,0,0,0.010850694444444444,80.01302083333334,0)" xlink:href="#aN"/></g><path fill="#20252b" d="M715 0H502L69-1082h202c94 253 197 500 285 758 19 57 36 126 52 183 96-335 234-626 350-941h201" id="aO"/><g id="p"><use transform="matrix(0.010850694444444444,0,0,0.010850694444444444,0,0)" xlink:href="#aO"/><use transform="matrix(0.010850694444444444,0,0,0.010850694444444444,13.335503472222221,0)" xlink:href="#aj"/><use transform="matrix(0.010850694444444444,0,0,0.010850694444444444,26.671006944444443,0)" xlink:href="#aN"/><use transform="matrix(0.010850694444444444,0,0,0.010850694444444444,40.006510416666664,0)" xlink:href="#at"/><use transform="matrix(0.010850694444444444,0,0,0.010850694444444444,53.342013888888886,0)" xlink:href="#al"/><use transform="matrix(0.010850694444444444,0,0,0.010850694444444444,66.67751736111111,0)" xlink:href="#av"/></g><path fill="#20252b" d="M839-1335c-182-6-269 67-259 253h491v142H580V0H400v-940H138v-142h262c-15-293 132-408 418-402 94 2 200 7 281 21v145c-75-10-177-14-260-17" id="aP"/><g id="q"><use transform="matrix(0.010850694444444444,0,0,0.010850694444444444,0,0)" xlink:href="#aP"/><use transform="matrix(0.010850694444444444,0,0,0.010850694444444444,13.335503472222221,0)" xlink:href="#ar"/><use transform="matrix(0.010850694444444444,0,0,0.010850694444444444,26.671006944444443,0)" xlink:href="#ao"/></g><path fill="#20252b" d="M709-1193V0H519v-1193H76v-156h1076v156H709" id="aQ"/><g id="r"><use transform="matrix(0.010850694444444444,0,0,0.010850694444444444,0,0)" xlink:href="#as"/><use transform="matrix(0.010850694444444444,0,0,0.010850694444444444,13.335503472222221,0)" xlink:href="#aQ"/></g><path fill="#20252b" d="M530 26c-303-6-392-228-392-558 0-187 33-329 98-424s162-142 293-142c178 0 273 69 334 184 1-56 3-122 12-169h175c-6 88-6 180-6 282V425H863c1-202-4-411 4-607h-2C805-59 713 29 530 26zm47-139c234 0 286-193 286-441 0-238-55-411-284-411-223 0-255 198-255 427 0 227 33 425 253 425" id="aR"/><g id="s"><use transform="matrix(0.010850694444444444,0,0,0.010850694444444444,0,0)" xlink:href="#aK"/><use transform="matrix(0.010850694444444444,0,0,0.010850694444444444,13.335503472222221,0)" xlink:href="#aR"/><use transform="matrix(0.010850694444444444,0,0,0.010850694444444444,26.671006944444443,0)" xlink:href="#at"/><use transform="matrix(0.010850694444444444,0,0,0.010850694444444444,40.006510416666664,0)" xlink:href="#aj"/><use transform="matrix(0.010850694444444444,0,0,0.010850694444444444,53.342013888888886,0)" xlink:href="#ap"/><use transform="matrix(0.010850694444444444,0,0,0.010850694444444444,66.67751736111111,0)" xlink:href="#aq"/><use transform="matrix(0.010850694444444444,0,0,0.010850694444444444,80.01302083333334,0)" xlink:href="#ar"/><use transform="matrix(0.010850694444444444,0,0,0.010850694444444444,93.34852430555557,0)" xlink:href="#an"/></g><g id="t"><use transform="matrix(0.010850694444444444,0,0,0.010850694444444444,0,0)" xlink:href="#au"/><path fill="#20252b" d="M-1.1 4.72h15.55v.9H-1.1z"/></g><g id="u"><use transform="matrix(0.010850694444444444,0,0,0.010850694444444444,0,0)" xlink:href="#au"/><use transform="matrix(0.010850694444444444,0,0,0.010850694444444444,13.335503472222221,0)" xlink:href="#aj"/><use transform="matrix(0.010850694444444444,0,0,0.010850694444444444,26.671006944444443,0)" xlink:href="#av"/><use transform="matrix(0.010850694444444444,0,0,0.010850694444444444,40.006510416666664,0)" xlink:href="#al"/></g><path fill="#20252b" d="M687-608v428H540v-428H116v-146h424v-428h147v428h424v146H687" id="aS"/><use transform="matrix(0.010850694444444444,0,0,0.010850694444444444,0,0)" xlink:href="#aS" id="v"/><path fill="#20252b" d="M285-1169c8 382 2 780 4 1169H129v-1349h237c86 239 188 461 253 720 69-258 169-481 255-720h225V0H937c2-390-5-788 6-1169-75 255-170 488-259 729H547c-90-240-185-475-262-729" id="aT"/><g id="w"><use transform="matrix(0.010850694444444444,0,0,0.010850694444444444,0,0)" xlink:href="#aT"/><use transform="matrix(0.010850694444444444,0,0,0.010850694444444444,13.335503472222221,0)" xlink:href="#aj"/><use transform="matrix(0.010850694444444444,0,0,0.010850694444444444,26.671006944444443,0)" xlink:href="#an"/><use transform="matrix(0.010850694444444444,0,0,0.010850694444444444,40.006510416666664,0)" xlink:href="#at"/><use transform="matrix(0.010850694444444444,0,0,0.010850694444444444,53.342013888888886,0)" xlink:href="#aj"/><use transform="matrix(0.010850694444444444,0,0,0.010850694444444444,66.67751736111111,0)" xlink:href="#aN"/></g><path fill="#20252b" d="M473-1349c438-1 655 221 652 661C1122-268 945-8 532 0H162v-1349h311zm42 1193c308-4 416-205 418-532 2-330-131-509-459-505H353v1037h162" id="aU"/><path fill="#20252b" d="M1121-976c0 225-142 341-344 379L1177 0H957L591-575H353V0H162v-1349h482c281 3 477 100 477 373zM633-726c181-1 296-73 296-247 0-149-101-223-304-223H353v470h280" id="aV"/><g id="x"><use transform="matrix(0.010850694444444444,0,0,0.010850694444444444,0,0)" xlink:href="#aU"/><use transform="matrix(0.010850694444444444,0,0,0.010850694444444444,13.335503472222221,0)" xlink:href="#aV"/></g><g id="y"><use transform="matrix(0.010850694444444444,0,0,0.010850694444444444,0,0)" xlink:href="#aB"/><use transform="matrix(0.010850694444444444,0,0,0.010850694444444444,13.335503472222221,0)" xlink:href="#ax"/><use transform="matrix(0.010850694444444444,0,0,0.010850694444444444,26.671006944444443,0)" xlink:href="#ax"/><use transform="matrix(0.010850694444444444,0,0,0.010850694444444444,40.006510416666664,0)" xlink:href="#ax"/></g><path fill="#20252b" d="M937-319V0H757v-319H103v-140l635-890h199v888h188v142H937zm-180-835L257-461h500v-693" id="aW"/><g id="z"><use transform="matrix(0.010850694444444444,0,0,0.010850694444444444,0,0)" xlink:href="#aw"/><use transform="matrix(0.010850694444444444,0,0,0.010850694444444444,13.335503472222221,0)" xlink:href="#ax"/><use transform="matrix(0.010850694444444444,0,0,0.010850694444444444,26.671006944444443,0)" xlink:href="#aH"/><use transform="matrix(0.010850694444444444,0,0,0.010850694444444444,40.006510416666664,0)" xlink:href="#aW"/><use transform="matrix(0.010850694444444444,0,0,0.010850694444444444,53.342013888888886,0)" xlink:href="#ax"/><use transform="matrix(0.010850694444444444,0,0,0.010850694444444444,66.67751736111111,0)" xlink:href="#aJ"/></g><path fill="#20252b" d="M891-1484c-201 251-362 514-362 954 0 441 161 704 362 955H701C500 176 342-90 342-532c0-440 159-704 359-952h190" id="aX"/><path fill="#20252b" d="M528-1484c201 248 357 511 357 952 0 442-156 709-357 957H336C537 174 700-89 700-530c0-440-163-703-364-954h192" id="aY"/><g id="A"><use transform="matrix(0.010850694444444444,0,0,0.010850694444444444,0,0)" xlink:href="#aX"/><use transform="matrix(0.010850694444444444,0,0,0.010850694444444444,13.335503472222221,0)" xlink:href="#aj"/><use transform="matrix(0.010850694444444444,0,0,0.010850694444444444,26.671006944444443,0)" xlink:href="#aY"/></g><path fill="#20252b" d="M698-1104c312 3 392 244 392 558 0 315-82 566-392 566-169 0-277-65-331-184h-5c8 188 2 394 4 589H185V-858c0-76-1-156-6-224h175c6 52 9 120 10 178h4c58-122 150-202 330-200zm-49 991c225 0 255-203 255-433 0-225-32-419-253-419-236 0-285 192-285 441 0 237 53 411 283 411" id="aZ"/><path fill="#20252b" d="M648-963c-190 6-283 138-283 336V0H185v-1484h181c-2 197 6 404-9 587h3c62-120 159-205 339-205 242 0 351 135 350 381V0H868v-695c1-168-57-273-220-268" id="ba"/><g id="B"><use transform="matrix(0.010850694444444444,0,0,0.010850694444444444,0,0)" xlink:href="#aU"/><use transform="matrix(0.010850694444444444,0,0,0.010850694444444444,13.335503472222221,0)" xlink:href="#al"/><use transform="matrix(0.010850694444444444,0,0,0.010850694444444444,26.671006944444443,0)" xlink:href="#aZ"/><use transform="matrix(0.010850694444444444,0,0,0.010850694444444444,40.006510416666664,0)" xlink:href="#ap"/><use transform="matrix(0.010850694444444444,0,0,0.010850694444444444,53.342013888888886,0)" xlink:href="#ba"/></g><g id="C"><use transform="matrix(0.010850694444444444,0,0,0.010850694444444444,0,0)" xlink:href="#aK"/><use transform="matrix(0.010850694444444444,0,0,0.010850694444444444,13.335503472222221,0)" xlink:href="#av"/><use transform="matrix(0.010850694444444444,0,0,0.010850694444444444,26.671006944444443,0)" xlink:href="#ap"/><use transform="matrix(0.010850694444444444,0,0,0.010850694444444444,40.006510416666664,0)" xlink:href="#aq"/><use transform="matrix(0.010850694444444444,0,0,0.010850694444444444,53.342013888888886,0)" xlink:href="#ai"/><use transform="matrix(0.010850694444444444,0,0,0.010850694444444444,66.67751736111111,0)" xlink:href="#aj"/><use transform="matrix(0.010850694444444444,0,0,0.010850694444444444,80.01302083333334,0)" xlink:href="#ap"/><use transform="matrix(0.010850694444444444,0,0,0.010850694444444444,93.34852430555557,0)" xlink:href="#aq"/><use transform="matrix(0.010850694444444444,0,0,0.010850694444444444,106.6840277777778,0)" xlink:href="#ar"/><use transform="matrix(0.010850694444444444,0,0,0.010850694444444444,120.01953125000003,0)" xlink:href="#an"/></g><g id="D"><use transform="matrix(0.010850694444444444,0,0,0.010850694444444444,0,0)" xlink:href="#aV"/><use transform="matrix(0.010850694444444444,0,0,0.010850694444444444,13.335503472222221,0)" xlink:href="#al"/><use transform="matrix(0.010850694444444444,0,0,0.010850694444444444,26.671006944444443,0)" xlink:href="#aO"/><use transform="matrix(0.010850694444444444,0,0,0.010850694444444444,40.006510416666664,0)" xlink:href="#al"/><use transform="matrix(0.010850694444444444,0,0,0.010850694444444444,53.342013888888886,0)" xlink:href="#ao"/><use transform="matrix(0.010850694444444444,0,0,0.010850694444444444,66.67751736111111,0)" xlink:href="#av"/><use transform="matrix(0.010850694444444444,0,0,0.010850694444444444,80.01302083333334,0)" xlink:href="#al"/></g><g id="E"><use transform="matrix(0.010850694444444444,0,0,0.010850694444444444,0,0)" xlink:href="#al"/><use transform="matrix(0.010850694444444444,0,0,0.010850694444444444,13.335503472222221,0)" xlink:href="#an"/><use transform="matrix(0.010850694444444444,0,0,0.010850694444444444,26.671006944444443,0)" xlink:href="#ak"/><use transform="matrix(0.010850694444444444,0,0,0.010850694444444444,40.006510416666664,0)" xlink:href="#aq"/><use transform="matrix(0.010850694444444444,0,0,0.010850694444444444,53.342013888888886,0)" xlink:href="#an"/><use transform="matrix(0.010850694444444444,0,0,0.010850694444444444,66.67751736111111,0)" xlink:href="#al"/><use transform="matrix(0.010850694444444444,0,0,0.010850694444444444,80.01302083333334,0)" xlink:href="#al"/><use transform="matrix(0.010850694444444444,0,0,0.010850694444444444,93.34852430555557,0)" xlink:href="#ao"/></g><g id="F"><use transform="matrix(0.010850694444444444,0,0,0.010850694444444444,0,0)" xlink:href="#ao"/><use transform="matrix(0.010850694444444444,0,0,0.010850694444444444,13.335503472222221,0)" xlink:href="#al"/><use transform="matrix(0.010850694444444444,0,0,0.010850694444444444,26.671006944444443,0)" xlink:href="#aj"/><use transform="matrix(0.010850694444444444,0,0,0.010850694444444444,40.006510416666664,0)" xlink:href="#aN"/></g><g id="G"><use transform="matrix(0.010850694444444444,0,0,0.010850694444444444,0,0)" xlink:href="#aq"/><use transform="matrix(0.010850694444444444,0,0,0.010850694444444444,13.335503472222221,0)" xlink:href="#ai"/><use transform="matrix(0.010850694444444444,0,0,0.010850694444444444,26.671006944444443,0)" xlink:href="#aj"/><use transform="matrix(0.010850694444444444,0,0,0.010850694444444444,40.006510416666664,0)" xlink:href="#ak"/><use transform="matrix(0.010850694444444444,0,0,0.010850694444444444,53.342013888888886,0)" xlink:href="#al"/><use transform="matrix(0.010850694444444444,0,0,0.010850694444444444,66.67751736111111,0)" xlink:href="#av"/></g><g id="H"><use transform="matrix(0.010850694444444444,0,0,0.010850694444444444,0,0)" xlink:href="#aP"/><use transform="matrix(0.010850694444444444,0,0,0.010850694444444444,13.335503472222221,0)" xlink:href="#ar"/><use transform="matrix(0.010850694444444444,0,0,0.010850694444444444,26.671006944444443,0)" xlink:href="#ao"/></g><g id="I"><use transform="matrix(0.010850694444444444,0,0,0.010850694444444444,0,0)" xlink:href="#aV"/><use transform="matrix(0.010850694444444444,0,0,0.010850694444444444,13.335503472222221,0)" xlink:href="#am"/><use transform="matrix(0.010850694444444444,0,0,0.010850694444444444,26.671006944444443,0)" xlink:href="#au"/></g><g id="J"><use transform="matrix(0.010850694444444444,0,0,0.010850694444444444,0,0)" xlink:href="#ao"/><use transform="matrix(0.010850694444444444,0,0,0.010850694444444444,13.335503472222221,0)" xlink:href="#aj"/><use transform="matrix(0.010850694444444444,0,0,0.010850694444444444,26.671006944444443,0)" xlink:href="#ap"/><use transform="matrix(0.010850694444444444,0,0,0.010850694444444444,40.006510416666664,0)" xlink:href="#aq"/><use transform="matrix(0.010850694444444444,0,0,0.010850694444444444,53.342013888888886,0)" xlink:href="#ar"/><use transform="matrix(0.010850694444444444,0,0,0.010850694444444444,66.67751736111111,0)" xlink:href="#av"/></g><g id="K"><use transform="matrix(0.010850694444444444,0,0,0.010850694444444444,0,0)" xlink:href="#aX"/><use transform="matrix(0.010850694444444444,0,0,0.010850694444444444,13.335503472222221,0)" xlink:href="#aM"/><use transform="matrix(0.010850694444444444,0,0,0.010850694444444444,26.671006944444443,0)" xlink:href="#aY"/></g><path fill="#20252b" d="M914 0L548-499l-132 98V0H236v-1484h180v927l475-525h211L663-617 1125 0H914" id="bb"/><path fill="#20252b" d="M170-451v-137h888v137H170" id="bc"/><path fill="#20252b" d="M147 0v-137l681-806H187v-139h844v137L349-139h719V0H147" id="bd"/><g id="L"><use transform="matrix(0.010850694444444444,0,0,0.010850694444444444,0,0)" xlink:href="#as"/><use transform="matrix(0.010850694444444444,0,0,0.010850694444444444,13.335503472222221,0)" xlink:href="#bb"/><use transform="matrix(0.010850694444444444,0,0,0.010850694444444444,26.671006944444443,0)" xlink:href="#bb"/><use transform="matrix(0.010850694444444444,0,0,0.010850694444444444,40.006510416666664,0)" xlink:href="#aj"/><use transform="matrix(0.010850694444444444,0,0,0.010850694444444444,53.342013888888886,0)" xlink:href="#aL"/><use transform="matrix(0.010850694444444444,0,0,0.010850694444444444,66.67751736111111,0)" xlink:href="#an"/><use transform="matrix(0.010850694444444444,0,0,0.010850694444444444,80.01302083333334,0)" xlink:href="#aj"/><use transform="matrix(0.010850694444444444,0,0,0.010850694444444444,93.34852430555557,0)" xlink:href="#bb"/><use transform="matrix(0.010850694444444444,0,0,0.010850694444444444,106.6840277777778,0)" xlink:href="#bc"/><use transform="matrix(0.010850694444444444,0,0,0.010850694444444444,120.01953125000003,0)" xlink:href="#aQ"/><use transform="matrix(0.010850694444444444,0,0,0.010850694444444444,133.35503472222226,0)" xlink:href="#ao"/><use transform="matrix(0.010850694444444444,0,0,0.010850694444444444,146.69053819444449,0)" xlink:href="#al"/><use transform="matrix(0.010850694444444444,0,0,0.010850694444444444,160.0260416666667,0)" xlink:href="#aq"/><use transform="matrix(0.010850694444444444,0,0,0.010850694444444444,173.36154513888894,0)" xlink:href="#aM"/><use transform="matrix(0.010850694444444444,0,0,0.010850694444444444,186.69704861111117,0)" xlink:href="#aq"/><use transform="matrix(0.010850694444444444,0,0,0.010850694444444444,200.0325520833334,0)" xlink:href="#ap"/><use transform="matrix(0.010850694444444444,0,0,0.010850694444444444,213.36805555555563,0)" xlink:href="#bd"/></g><g id="M"><use transform="matrix(0.010850694444444444,0,0,0.010850694444444444,0,0)" xlink:href="#aK"/><use transform="matrix(0.010850694444444444,0,0,0.010850694444444444,13.335503472222221,0)" xlink:href="#aR"/><use transform="matrix(0.010850694444444444,0,0,0.010850694444444444,26.671006944444443,0)" xlink:href="#at"/><use transform="matrix(0.010850694444444444,0,0,0.010850694444444444,40.006510416666664,0)" xlink:href="#aj"/><use transform="matrix(0.010850694444444444,0,0,0.010850694444444444,53.342013888888886,0)" xlink:href="#ap"/><use transform="matrix(0.010850694444444444,0,0,0.010850694444444444,66.67751736111111,0)" xlink:href="#aq"/><use transform="matrix(0.010850694444444444,0,0,0.010850694444444444,80.01302083333334,0)" xlink:href="#ar"/><use transform="matrix(0.010850694444444444,0,0,0.010850694444444444,93.34852430555557,0)" xlink:href="#an"/></g><path fill="#20252b" d="M650-1214c-281 0-336 244-336 533 0 295 60 546 347 546 188 0 263-142 322-282l159 65C1058-155 935 20 659 20c-401 0-546-295-546-701 0-407 135-689 536-689 264 0 391 146 466 335l-168 65c-47-129-127-244-297-244" id="be"/><g id="N"><use transform="matrix(0.010850694444444444,0,0,0.010850694444444444,0,0)" xlink:href="#be"/><path fill="#20252b" d="M-1.1 4.72h15.55v.9H-1.1z"/></g><g id="O"><use transform="matrix(0.010850694444444444,0,0,0.010850694444444444,0,0)" xlink:href="#as"/><use transform="matrix(0.010850694444444444,0,0,0.010850694444444444,13.335503472222221,0)" xlink:href="#aU"/><use transform="matrix(0.010850694444444444,0,0,0.010850694444444444,26.671006944444443,0)" xlink:href="#aV"/></g><use transform="matrix(0.010850694444444444,0,0,0.010850694444444444,0,0)" xlink:href="#aS" id="P"/><path fill="#20252b" d="M587-135c154 0 209-115 209-281v-777H485v-156h501v929C982-148 857 20 586 20c-254 0-368-136-410-370l187-31c24 134 77 246 224 246" id="bf"/><g id="Q"><use transform="matrix(0.010850694444444444,0,0,0.010850694444444444,0,0)" xlink:href="#bf"/><use transform="matrix(0.010850694444444444,0,0,0.010850694444444444,13.335503472222221,0)" xlink:href="#al"/><use transform="matrix(0.010850694444444444,0,0,0.010850694444444444,26.671006944444443,0)" xlink:href="#ao"/><use transform="matrix(0.010850694444444444,0,0,0.010850694444444444,40.006510416666664,0)" xlink:href="#aN"/><use transform="matrix(0.010850694444444444,0,0,0.010850694444444444,53.342013888888886,0)" xlink:href="#ar"/><use transform="matrix(0.010850694444444444,0,0,0.010850694444444444,66.67751736111111,0)" xlink:href="#aO"/></g><path fill="#20252b" d="M761-556V0H467v-556L3-1349h309l300 566 304-566h309" id="bg"/><path fill="#20252b" d="M615-1370c385 0 542 273 542 691 0 230-47 404-140 522S790 20 615 20C231 20 72-262 72-679c0-419 158-691 543-691zM797-330c77-133 78-564 0-695-44-73-101-113-182-113s-139 40-183 114c-79 133-78 560 0 694 45 77 102 118 183 118s138-41 182-118" id="bh"/><path fill="#20252b" d="M211 0v-1349h295v1121h616V0H211" id="bi"/><path fill="#20252b" d="M135-968c34-256 187-402 480-402 217 0 371 75 441 220 45 93 40 219-8 308-114 212-348 323-508 488-38 39-66 80-85 123h654V0H123v-195c112-245 321-399 515-560 57-48 107-96 142-157 14-26 22-53 22-80-1-104-73-156-185-154-131 2-181 74-199 194" id="bj"/><path fill="#20252b" d="M706-877c265 0 409 163 409 431 0 299-171 466-474 466-381 0-516-302-516-692 0-236 47-410 135-526 112-147 319-207 541-154 154 36 236 149 276 306l-265 37c-22-86-75-139-170-139-76 0-135 36-178 108s-64 179-64 318c54-94 164-155 306-155zm-74 678c138 0 201-98 201-239s-67-232-208-232c-125 0-205 73-205 202 0 149 67 269 212 269" id="bk"/><path fill="#20252b" d="M874 0L612-392 348 0H49l406-559-387-523h303l241 354 240-354h305L770-562 1179 0H874" id="bl"/><g id="R"><use transform="matrix(0.010850694444444444,0,0,0.010850694444444444,0,0)" xlink:href="#bg"/><use transform="matrix(0.010850694444444444,0,0,0.010850694444444444,13.335503472222221,0)" xlink:href="#bh"/><use transform="matrix(0.010850694444444444,0,0,0.010850694444444444,26.671006944444443,0)" xlink:href="#bi"/><use transform="matrix(0.010850694444444444,0,0,0.010850694444444444,40.006510416666664,0)" xlink:href="#bh"/><use transform="matrix(0.010850694444444444,0,0,0.010850694444444444,53.342013888888886,0)" xlink:href="#bj"/><use transform="matrix(0.010850694444444444,0,0,0.010850694444444444,66.67751736111111,0)" xlink:href="#bk"/><use transform="matrix(0.010850694444444444,0,0,0.010850694444444444,80.01302083333334,0)" xlink:href="#bl"/></g><path fill="#20252b" d="M934-1102c199 0 220 177 220 381V0H926c-2-260 10-533-4-785-4-72-14-138-83-138-34 0-61 27-81 81s-29 134-29 241V0H501c-2-260 9-533-5-785-4-72-13-138-82-138-46 0-65 47-80 93-21 67-30 155-30 248V0H75c-3-360 6-732-6-1082h209c6 50 3 123 8 175 36-100 83-195 216-195 135 0 166 79 196 196 42-105 93-196 236-196" id="bm"/><path fill="#20252b" d="M1229 0H935l-92-330H387L295 0H0l443-1349h344zM615-1167c-46 213-110 412-166 615h332c-56-204-119-401-166-615" id="bn"/><path fill="#20252b" d="M616-1349c316 3 526 118 526 426 0 301-201 442-514 447H431V0H136v-1349h480zm-25 646c164 1 254-62 254-215 0-157-99-200-262-202H431v417h160" id="bo"/><path fill="#20252b" d="M426-814c58-49 145-93 255-90 282 8 442 169 442 450 0 312-203 474-522 474-288 0-453-130-497-372l281-23c24 104 89 172 219 172 153 0 230-91 230-245 0-144-78-226-224-229-94-2-148 42-191 91H145l49-763h847v209H449" id="bp"/><path fill="#20252b" d="M127-675c0-405 101-695 492-695 382 0 482 297 482 695 0 324-79 561-295 658-59 27-124 37-195 37-378 0-484-300-484-695zm580 451c143-96 121-451 101-680-12-138-46-246-191-246-149 0-184 107-199 248-19 180-21 469 36 598 29 67 72 101 159 103 37 0 69-6 94-23" id="bq"/><g id="S"><use transform="matrix(0.010850694444444444,0,0,0.010850694444444444,0,0)" xlink:href="#bm"/><use transform="matrix(0.010850694444444444,0,0,0.010850694444444444,13.335503472222221,0)" xlink:href="#bn"/><use transform="matrix(0.010850694444444444,0,0,0.010850694444444444,26.671006944444443,0)" xlink:href="#bo"/><use transform="matrix(0.010850694444444444,0,0,0.010850694444444444,40.006510416666664,0)" xlink:href="#bp"/><use transform="matrix(0.010850694444444444,0,0,0.010850694444444444,53.342013888888886,0)" xlink:href="#bq"/></g><path fill="#20252b" d="M101-842v-223h1027v223H101zm0 551v-221h1027v221H101" id="br"/><use transform="matrix(0.010850694444444444,0,0,0.010850694444444444,0,0)" xlink:href="#br" id="T"/><path fill="#20252b" d="M138-1120c207-4 339-93 415-229h266v1140h323V0H149v-209h389v-891c-70 121-216 187-400 194v-214" id="bs"/><path fill="#20252b" d="M470 0v-305h289V0H470" id="bt"/><path fill="#20252b" d="M236 0H61l932-1353h177zM0-1025c0-214 83-337 291-336 203 1 283 126 283 336-1 211-84 341-287 341C83-684 0-813 0-1025zm289 201c89-10 109-85 109-201 0-105-10-201-109-201-97 0-113 81-113 201 0 118 19 192 113 201zm367 495c0-214 83-337 291-336 203 1 283 126 283 336-1 211-84 341-287 341-204 0-287-129-287-341zm289 201c89-10 109-85 109-201 0-105-10-201-109-201-97 0-113 81-113 201 0 118 19 192 113 201" id="bu"/><g id="U"><use transform="matrix(0.010850694444444444,0,0,0.010850694444444444,0,0)" xlink:href="#bs"/><use transform="matrix(0.010850694444444444,0,0,0.010850694444444444,13.335503472222221,0)" xlink:href="#bs"/><use transform="matrix(0.010850694444444444,0,0,0.010850694444444444,26.671006944444443,0)" xlink:href="#bt"/><use transform="matrix(0.010850694444444444,0,0,0.010850694444444444,40.006510416666664,0)" xlink:href="#bj"/><use transform="matrix(0.010850694444444444,0,0,0.010850694444444444,53.342013888888886,0)" xlink:href="#bs"/><use transform="matrix(0.010850694444444444,0,0,0.010850694444444444,66.67751736111111,0)" xlink:href="#bu"/></g><g id="V"><use transform="matrix(0.010850694444444444,0,0,0.010850694444444444,0,0)" xlink:href="#aU"/><path fill="#20252b" d="M-1.1 4.72h15.55v.9H-1.1z"/></g><g id="W"><use transform="matrix(0.010850694444444444,0,0,0.010850694444444444,0,0)" xlink:href="#aw"/><use transform="matrix(0.010850694444444444,0,0,0.010850694444444444,13.335503472222221,0)" xlink:href="#be"/></g><path fill="#20252b" d="M829-709c170 32 291 130 291 327 0 285-207 402-505 402-296 0-506-116-506-400 0-194 122-293 287-327v-4c-145-37-254-130-254-301 0-257 201-358 469-358 275 0 474 97 474 360 0 168-110 262-256 297v4zm-216-99c126 0 184-66 183-187-1-119-62-179-185-178-121 0-182 60-182 178 0 119 60 187 184 187zm4 630c149 0 213-80 212-227-2-138-77-206-220-206-139 1-209 76-211 210-2 147 70 223 219 223" id="bv"/><g id="X"><use transform="matrix(0.010850694444444444,0,0,0.010850694444444444,0,0)" xlink:href="#bs"/><use transform="matrix(0.010850694444444444,0,0,0.010850694444444444,13.335503472222221,0)" xlink:href="#bs"/><use transform="matrix(0.010850694444444444,0,0,0.010850694444444444,26.671006944444443,0)" xlink:href="#bt"/><use transform="matrix(0.010850694444444444,0,0,0.010850694444444444,40.006510416666664,0)" xlink:href="#bv"/><use transform="matrix(0.010850694444444444,0,0,0.010850694444444444,53.342013888888886,0)" xlink:href="#bj"/><use transform="matrix(0.010850694444444444,0,0,0.010850694444444444,66.67751736111111,0)" xlink:href="#bu"/></g></defs></g></svg>